<svg width="96" height="146" viewBox="0 0 96 146" fill="none" xmlns="http://www.w3.org/2000/svg">
<path fill-rule="evenodd" clip-rule="evenodd" d="M95.036 9.67958V75.5294L76.2218 94.3436H0.964844V0.272461H19.7791V9.67958H38.5933V0.272461H57.4075V9.67958H76.2218V0.272461H95.036V9.67958ZM76.2218 62.3594V37.9009H19.7791V75.5294H63.0518L76.2218 62.3594Z" fill="black"/>
<path fill-rule="evenodd" clip-rule="evenodd" d="M75.0586 129.194L75.0962 145.567L77.7947 145.607L80.4931 145.648V138.334C80.4931 130.635 80.5447 129.907 81.1604 128.932C82.0341 127.548 83.3255 126.952 85.2705 127.035C87.5309 127.132 88.9874 128.276 89.3618 130.25C89.4516 130.723 89.5126 134 89.5126 138.346V145.648L92.2111 145.607L94.9096 145.567V137.14C94.9096 127.961 94.9048 127.899 94.0563 126.2C93.4579 125.002 91.9009 123.484 90.6646 122.894C87.8612 121.557 84.4077 121.514 81.732 122.785C80.8492 123.204 80.6482 123.254 80.578 123.071C80.5314 122.949 80.4931 120.593 80.4931 117.835V112.821H77.7571H75.0209L75.0586 129.194ZM1.0918 130.192V145.641L6.89534 145.638C14.6317 145.635 15.8872 145.454 18.8762 143.913C21.5061 142.557 23.6619 139.892 24.5956 136.845C25.5137 133.847 25.6089 127.82 24.7941 124.278C23.8239 120.062 20.8507 116.814 16.7492 115.49C14.6873 114.825 13.6456 114.743 7.19106 114.743L1.0918 114.743V130.192ZM7.00623 130.192V140.171H10.0531C14.1797 140.171 15.3494 139.855 17.0834 138.27C18.8639 136.643 19.4277 134.664 19.4255 130.048C19.4232 124.948 18.4428 122.551 15.7838 121.144C14.2059 120.308 13.6295 120.213 10.1583 120.213H7.00623V130.192ZM36.8002 122.054C34.4028 122.54 32.9573 123.269 31.4821 124.737C30.5071 125.708 29.6967 127.091 29.2393 128.566C28.9967 129.348 28.9643 129.977 28.9655 133.888C28.9671 138.908 29.0628 139.493 30.18 141.309C31.7976 143.938 34.1324 145.339 37.6692 145.802C40.0774 146.117 43.1782 145.546 45.1334 144.428C46.2952 143.763 47.6986 142.383 48.2343 141.378C48.7416 140.427 49.2177 138.796 49.0875 138.456C49.0193 138.278 48.562 138.249 46.3918 138.283L43.7782 138.323L43.3944 139.018C42.941 139.839 42.442 140.254 41.462 140.626C39.7715 141.269 37.5275 141.118 36.1063 140.266C34.8993 139.542 34.3265 138.458 34.2991 136.845L34.2866 136.105L41.8047 136.067L49.323 136.029L49.2572 132.741C49.1852 129.135 49.0679 128.456 48.2197 126.733C47.3674 125.002 45.2741 123.228 43.2251 122.5C41.4921 121.884 38.6213 121.685 36.8002 122.054ZM52.7287 124.981L52.7692 127.531L58.3509 127.569C61.4208 127.591 63.9327 127.644 63.9327 127.688C63.9327 127.795 55.061 137.844 53.1081 139.949L52.6966 140.393L52.696 143.017L52.6953 145.641H62.0105H71.3257V143.054V140.467H65.6418C62.5156 140.467 59.9252 140.414 59.8853 140.349C59.8452 140.284 60.0253 140.002 60.2853 139.721C60.5453 139.44 61.9199 137.913 63.3399 136.327C64.7598 134.742 65.9899 133.371 66.0731 133.282C66.1564 133.193 66.7279 132.561 67.3432 131.878C67.9585 131.194 69.0729 129.958 69.8199 129.131L71.1779 127.627V125.028V122.43H61.933H52.6883L52.7287 124.981ZM37.0638 127.297C35.1187 127.96 34.0358 129.469 34.237 131.235L34.2866 131.67H39.0921H43.8975L43.8731 130.765C43.8375 129.438 43.2585 128.47 42.0404 127.699C40.934 126.999 38.5121 126.803 37.0638 127.297Z" fill="black"/>
</svg>
